<svg width="40" height="40" viewBox="0 0 40 40" fill="none" xmlns="http://www.w3.org/2000/svg">
<path d="M35 9.99984H31.6667M35 19.9998H30M35 29.9998H26.6667M11.6667 33.3332V22.6018C11.6667 22.2552 11.6667 22.0818 11.6326 21.916C11.6024 21.769 11.5525 21.6267 11.4842 21.4928C11.4072 21.3422 11.2989 21.2068 11.0823 20.936L5.58435 14.0636C5.36777 13.7929 5.25948 13.6575 5.18247 13.5068C5.11415 13.3731 5.06422 13.2307 5.03403 13.0836C5 12.9178 5 12.7445 5 12.3978V9.33317C5 8.39975 5 7.93304 5.18165 7.57652C5.34145 7.26292 5.59642 7.00795 5.91002 6.84815C6.26653 6.6665 6.73325 6.6665 7.66667 6.6665H22.3333C23.2668 6.6665 23.7335 6.6665 24.09 6.84815C24.4037 7.00795 24.6585 7.26292 24.8183 7.57652C25 7.93304 25 8.39975 25 9.33317V12.3978C25 12.7445 25 12.9178 24.966 13.0836C24.9358 13.2307 24.8858 13.3731 24.8175 13.5068C24.7405 13.6575 24.6322 13.7929 24.4157 14.0636L18.9177 20.936C18.7012 21.2068 18.5928 21.3422 18.5158 21.4928C18.4475 21.6267 18.3975 21.769 18.3673 21.916C18.3333 22.0818 18.3333 22.2552 18.3333 22.6018V28.3332L11.6667 33.3332Z" stroke="#564A78" stroke-width="5.33333" stroke-linecap="round" stroke-linejoin="round"/>
</svg>
