<svg width="30" height="30" viewBox="0 0 30 30" fill="none" xmlns="http://www.w3.org/2000/svg">
<g clip-path="url(#clip0_148_18)">
<path d="M16.7631 23.2374C17.2955 23.7698 18.159 23.7699 18.6915 23.2373C19.2241 22.7047 19.2241 21.8414 18.6915 21.3088L12.3831 15.0004L18.6915 8.69181C19.2241 8.15927 19.2241 7.2959 18.6915 6.76336C18.4253 6.49708 18.0763 6.36399 17.7273 6.36399C17.3783 6.36399 17.0293 6.49708 16.7631 6.76345L9.49037 14.0364C9.23455 14.2921 9.09091 14.6389 9.09091 15.0006C9.09091 15.3624 9.23455 15.7092 9.49037 15.9649L16.7631 23.2374Z" fill="#564A78" stroke="#564A78" stroke-width="0.193939"/>
<path d="M15 30C23.271 30 30 23.271 30 15C30 6.729 23.271 1.90735e-06 15 1.90735e-06C6.729 1.90735e-06 1.90735e-06 6.729 1.90735e-06 15C1.90735e-06 23.271 6.729 30 15 30ZM15 2.72727C21.7672 2.72727 27.2727 8.23282 27.2727 15C27.2727 21.7672 21.7672 27.2727 15 27.2727C8.23282 27.2727 2.72727 21.7672 2.72727 15C2.72727 8.23282 8.23282 2.72727 15 2.72727Z" fill="#564A78" stroke="#564A78" stroke-width="0.193939"/>
</g>
<defs>
<clipPath id="clip0_148_18">
<rect width="30" height="30" fill="white" transform="matrix(-1 0 0 -1 30 30)"/>
</clipPath>
</defs>
</svg>
