<svg width="30" height="30" viewBox="0 0 30 30" fill="none" xmlns="http://www.w3.org/2000/svg">
<g clip-path="url(#clip0_148_11)">
<path d="M13.2369 6.76264C12.7045 6.23019 11.841 6.2301 11.3085 6.76274C10.7759 7.29528 10.7759 8.15865 11.3085 8.69119L17.6169 14.9996L11.3085 21.3082C10.7759 21.8407 10.7759 22.7041 11.3085 23.2366C11.5747 23.5029 11.9237 23.636 12.2727 23.636C12.6217 23.636 12.9707 23.5029 13.2369 23.2366L20.5096 15.9636C20.7655 15.7079 20.9091 15.3611 20.9091 14.9994C20.9091 14.6376 20.7655 14.2908 20.5096 14.0351L13.2369 6.76264Z" fill="#564A78" stroke="#564A78" stroke-width="0.193939"/>
<path d="M15 0C6.729 0 0 6.729 0 15C0 23.271 6.729 30 15 30C23.271 30 30 23.271 30 15C30 6.729 23.271 0 15 0ZM15 27.2727C8.23282 27.2727 2.72727 21.7672 2.72727 15C2.72727 8.23282 8.23282 2.72727 15 2.72727C21.7672 2.72727 27.2727 8.23282 27.2727 15C27.2727 21.7672 21.7672 27.2727 15 27.2727Z" fill="#564A78" stroke="#564A78" stroke-width="0.193939"/>
</g>
<defs>
<clipPath id="clip0_148_11">
<rect width="30" height="30" fill="white"/>
</clipPath>
</defs>
</svg>
